<svg width="750" height="449" viewBox="0 0 750 449" fill="none" xmlns="http://www.w3.org/2000/svg">
<path d="M714.283 168.896C717.629 169.804 718.315 174.249 715.396 176.123L657.901 213.034C655.74 214.421 655.427 217.456 657.26 219.255L690.38 251.762C692.568 253.909 691.627 257.618 688.68 258.462L602.5 283.16C600.945 283.605 599.812 284.943 599.628 286.55L594.511 331.236C594.286 333.197 592.665 334.701 590.693 334.778L496.065 338.487C495.098 338.525 494.178 338.912 493.475 339.576L444.272 386.079C443.278 387.018 441.873 387.385 440.546 387.05L363.015 367.499C362.175 367.287 361.289 367.354 360.49 367.689L277.999 402.285C276.561 402.888 274.904 402.6 273.753 401.548L233.235 364.502C232.347 363.69 231.14 363.321 229.95 363.497L136.187 377.382C133.664 377.756 131.44 375.704 131.61 373.159L134.396 331.429C134.539 329.285 132.963 327.411 130.826 327.185L51.0378 318.743C47.6858 318.389 46.2484 314.301 48.6409 311.927L88.5425 272.323C90.4703 270.41 89.9713 267.173 87.5567 265.929L37.5814 240.179C34.5849 238.635 34.7246 234.305 37.8143 232.957L111.357 200.88C113.326 200.021 114.265 197.76 113.483 195.758L98.2605 156.805C97.3321 154.429 98.8346 151.802 101.353 151.399L194.945 136.404C196.133 136.214 197.172 135.499 197.775 134.457L225.256 86.9291C226.037 85.5792 227.531 84.8059 229.083 84.948L318.163 93.0971C319.026 93.176 319.891 92.9727 320.628 92.5177L388.673 50.5263C389.837 49.808 391.287 49.7343 392.518 50.3308L453.44 79.8582C454.311 80.2803 455.306 80.3723 456.239 80.1172L547.591 55.1581C549.495 54.638 551.494 55.584 552.298 57.386L570.634 98.4571C571.294 99.9338 572.777 100.868 574.394 100.825L664.011 98.4242C667.075 98.3421 669.089 101.595 667.65 104.301L645.856 145.273C644.65 147.54 645.862 150.34 648.34 151.012L714.283 168.896Z" fill="#FF0000"/>
</svg>
